<mxfile host="65bd71144e">
    <diagram id="PBxI8xpo0mmN2l5Na-Q3" name="Page-1">
        <mxGraphModel dx="818" dy="829" grid="1" gridSize="10" guides="1" tooltips="1" connect="1" arrows="1" fold="1" page="1" pageScale="1" pageWidth="850" pageHeight="1100" math="0" shadow="0">
            <root>
                <mxCell id="0"/>
                <mxCell id="1" parent="0"/>
                <mxCell id="17" style="edgeStyle=none;html=1;entryX=0;entryY=0.5;entryDx=0;entryDy=0;" parent="1" source="3" target="4" edge="1">
                    <mxGeometry relative="1" as="geometry"/>
                </mxCell>
                <mxCell id="3" value="raw spTEP" style="rounded=0;whiteSpace=wrap;html=1;" parent="1" vertex="1">
                    <mxGeometry x="40" y="395" width="120" height="60" as="geometry"/>
                </mxCell>
                <mxCell id="20" style="edgeStyle=none;html=1;entryX=0;entryY=0.5;entryDx=0;entryDy=0;" parent="1" source="4" target="18" edge="1">
                    <mxGeometry relative="1" as="geometry"/>
                </mxCell>
                <mxCell id="4" value="" style="rounded=0;whiteSpace=wrap;html=1;" parent="1" vertex="1">
                    <mxGeometry x="240" y="80" width="140" height="690" as="geometry"/>
                </mxCell>
                <mxCell id="5" value="Remove EOG channels" style="rounded=1;whiteSpace=wrap;html=1;" parent="1" vertex="1">
                    <mxGeometry x="250" y="95" width="120" height="60" as="geometry"/>
                </mxCell>
                <mxCell id="6" value="Clean bad channels" style="rounded=1;whiteSpace=wrap;html=1;" parent="1" vertex="1">
                    <mxGeometry x="250" y="155" width="120" height="60" as="geometry"/>
                </mxCell>
                <mxCell id="7" value="Remove and interpolate TMS pulse artifact" style="rounded=1;whiteSpace=wrap;html=1;" parent="1" vertex="1">
                    <mxGeometry x="250" y="215" width="120" height="60" as="geometry"/>
                </mxCell>
                <mxCell id="8" value="Downsample" style="rounded=1;whiteSpace=wrap;html=1;" parent="1" vertex="1">
                    <mxGeometry x="250" y="275" width="120" height="60" as="geometry"/>
                </mxCell>
                <mxCell id="9" value="Epoching" style="rounded=1;whiteSpace=wrap;html=1;" parent="1" vertex="1">
                    <mxGeometry x="250" y="335" width="120" height="60" as="geometry"/>
                </mxCell>
                <mxCell id="10" value="Demeaning" style="rounded=1;whiteSpace=wrap;html=1;" parent="1" vertex="1">
                    <mxGeometry x="250" y="395" width="120" height="60" as="geometry"/>
                </mxCell>
                <mxCell id="11" value="ICA 1" style="rounded=1;whiteSpace=wrap;html=1;" parent="1" vertex="1">
                    <mxGeometry x="250" y="455" width="120" height="60" as="geometry"/>
                </mxCell>
                <mxCell id="12" value="Bandpass and notch filtering" style="rounded=1;whiteSpace=wrap;html=1;" parent="1" vertex="1">
                    <mxGeometry x="250" y="515" width="120" height="60" as="geometry"/>
                </mxCell>
                <mxCell id="13" value="ICA 2" style="rounded=1;whiteSpace=wrap;html=1;" parent="1" vertex="1">
                    <mxGeometry x="250" y="575" width="120" height="60" as="geometry"/>
                </mxCell>
                <mxCell id="14" value="Rereferencing to average" style="rounded=1;whiteSpace=wrap;html=1;" parent="1" vertex="1">
                    <mxGeometry x="250" y="635" width="120" height="60" as="geometry"/>
                </mxCell>
                <mxCell id="15" value="Baseline correction" style="rounded=1;whiteSpace=wrap;html=1;" parent="1" vertex="1">
                    <mxGeometry x="250" y="695" width="120" height="60" as="geometry"/>
                </mxCell>
                <mxCell id="18" value="" style="rounded=0;whiteSpace=wrap;html=1;" parent="1" vertex="1">
                    <mxGeometry x="480" y="40" width="140" height="775" as="geometry"/>
                </mxCell>
                <mxCell id="21" style="edgeStyle=none;html=1;entryX=0;entryY=0.5;entryDx=0;entryDy=0;" parent="1" source="22" target="23" edge="1">
                    <mxGeometry relative="1" as="geometry"/>
                </mxCell>
                <mxCell id="22" value="raw rsEEG" style="rounded=0;whiteSpace=wrap;html=1;" parent="1" vertex="1">
                    <mxGeometry x="40" y="1095" width="120" height="60" as="geometry"/>
                </mxCell>
                <mxCell id="36" style="edgeStyle=none;html=1;entryX=0;entryY=0.5;entryDx=0;entryDy=0;" parent="1" source="23" target="35" edge="1">
                    <mxGeometry relative="1" as="geometry"/>
                </mxCell>
                <mxCell id="23" value="" style="rounded=0;whiteSpace=wrap;html=1;" parent="1" vertex="1">
                    <mxGeometry x="240" y="875" width="140" height="500" as="geometry"/>
                </mxCell>
                <mxCell id="24" value="Remove EOG channels" style="rounded=1;whiteSpace=wrap;html=1;" parent="1" vertex="1">
                    <mxGeometry x="250" y="885" width="120" height="60" as="geometry"/>
                </mxCell>
                <mxCell id="27" value="Downsample" style="rounded=1;whiteSpace=wrap;html=1;" parent="1" vertex="1">
                    <mxGeometry x="250" y="945" width="120" height="60" as="geometry"/>
                </mxCell>
                <mxCell id="28" value="Epoching" style="rounded=1;whiteSpace=wrap;html=1;" parent="1" vertex="1">
                    <mxGeometry x="250" y="1005" width="120" height="60" as="geometry"/>
                </mxCell>
                <mxCell id="29" value="Demeaning" style="rounded=1;whiteSpace=wrap;html=1;" parent="1" vertex="1">
                    <mxGeometry x="250" y="1065" width="120" height="60" as="geometry"/>
                </mxCell>
                <mxCell id="30" value="ICA" style="rounded=1;whiteSpace=wrap;html=1;" parent="1" vertex="1">
                    <mxGeometry x="250" y="1185" width="120" height="60" as="geometry"/>
                </mxCell>
                <mxCell id="31" value="Bandpass and notch filtering" style="rounded=1;whiteSpace=wrap;html=1;" parent="1" vertex="1">
                    <mxGeometry x="250" y="1125" width="120" height="60" as="geometry"/>
                </mxCell>
                <mxCell id="33" value="Rereferencing to average" style="rounded=1;whiteSpace=wrap;html=1;" parent="1" vertex="1">
                    <mxGeometry x="250" y="1245" width="120" height="60" as="geometry"/>
                </mxCell>
                <mxCell id="34" value="Baseline correction" style="rounded=1;whiteSpace=wrap;html=1;" parent="1" vertex="1">
                    <mxGeometry x="250" y="1305" width="120" height="60" as="geometry"/>
                </mxCell>
                <mxCell id="35" value="" style="rounded=0;whiteSpace=wrap;html=1;" parent="1" vertex="1">
                    <mxGeometry x="480" y="840" width="140" height="570" as="geometry"/>
                </mxCell>
                <mxCell id="37" value="TEP latency" style="rounded=1;whiteSpace=wrap;html=1;" parent="1" vertex="1">
                    <mxGeometry x="490" y="55" width="120" height="60" as="geometry"/>
                </mxCell>
                <mxCell id="52" value="TEP amplitude" style="rounded=1;whiteSpace=wrap;html=1;" parent="1" vertex="1">
                    <mxGeometry x="490" y="115" width="120" height="60" as="geometry"/>
                </mxCell>
                <mxCell id="53" value="Alpha peak frequency" style="rounded=1;whiteSpace=wrap;html=1;" parent="1" vertex="1">
                    <mxGeometry x="490" y="175" width="120" height="60" as="geometry"/>
                </mxCell>
                <mxCell id="54" value="Hjorth parameters" style="rounded=1;whiteSpace=wrap;html=1;" parent="1" vertex="1">
                    <mxGeometry x="490" y="235" width="120" height="60" as="geometry"/>
                </mxCell>
                <mxCell id="55" value="Cleaning" style="text;strokeColor=none;fillColor=none;html=1;fontSize=24;fontStyle=1;verticalAlign=middle;align=center;" parent="1" vertex="1">
                    <mxGeometry x="260" y="40" width="100" height="40" as="geometry"/>
                </mxCell>
                <mxCell id="56" value="Feature extraction" style="text;strokeColor=none;fillColor=none;html=1;fontSize=24;fontStyle=1;verticalAlign=middle;align=center;" parent="1" vertex="1">
                    <mxGeometry x="500" width="100" height="40" as="geometry"/>
                </mxCell>
                <mxCell id="57" value="Frequency band power" style="rounded=1;whiteSpace=wrap;html=1;" parent="1" vertex="1">
                    <mxGeometry x="490" y="295" width="120" height="60" as="geometry"/>
                </mxCell>
            </root>
        </mxGraphModel>
    </diagram>
</mxfile>